# xmcd CD database file
#
# Track frame offsets:
#	150
#	17872
#	33427
#	56915
#	81375
#	105687
#	126562
#	142482
#	166685
#	179695
#
# Disc length: 2619 seconds
#
# Revision: 0
# Processed by: cddbd v1.5PL3 Copyright (c) Steve Scherf et al.
# Submitted via: CDex 1.51
#
DISCID=980a390a
DTITLE=Various Artist - Tropical Jazz Fusion
DYEAR=1900
DGENRE=Jazz
TTITLE0=Jacqui Magno - Capture The Changes
TTITLE1=Lerma Dela Cruz - Highways Of My Life
TTITLE2=Louie Reyes - Me And You
TTITLE3=Baron Barbers - I'll Always Stay In Love This Way
TTITLE4=Boy Katindig - I Think I'll Tell Her
TTITLE5=Lerma Dela Cruz - Free
TTITLE6=Jennifer Ramos - Away From You
TTITLE7=Baron Barbers - Toss The Coin And See
TTITLE8=Richard Tann - Together Love
TTITLE9=Louie Reyes - If You Must Go
EXTD=
EXTT0=
EXTT1=
EXTT2=
EXTT3=
EXTT4=
EXTT5=
EXTT6=
EXTT7=
EXTT8=
EXTT9=
PLAYORDER=
